<svg width="128" height="128" viewBox="0 0 128 128" fill="none" xmlns="http://www.w3.org/2000/svg">
<path d="M60.4706 127C49.7371 127 39.4433 122.752 31.8536 115.191C24.2639 107.629 20 97.3735 20 86.68C20 75.9865 24.2639 65.7309 31.8536 58.1695C39.4433 50.608 49.7371 46.36 60.4706 46.36V127ZM60.4706 1H20V41.32H60.4706V1ZM85.7647 41.32C91.1314 41.32 96.2784 39.196 100.073 35.4153C103.868 31.6345 106 26.5068 106 21.16C106 15.8132 103.868 10.6855 100.073 6.90473C96.2784 3.12399 91.1314 1 85.7647 1C80.398 1 75.251 3.12399 71.4562 6.90473C67.6613 10.6855 65.5294 15.8132 65.5294 21.16C65.5294 26.5068 67.6613 31.6345 71.4562 35.4153C75.251 39.196 80.398 41.32 85.7647 41.32Z" fill="black"/>
</svg>
