<svg width="128" height="128" viewBox="0 0 128 128" fill="none" xmlns="http://www.w3.org/2000/svg">
<path d="M77.3779 56.9343C83.504 51.873 86.2185 21.9625 88.8703 11.2108C91.5223 0.459316 102.49 1.00463 102.49 1.00463C102.49 1.00463 99.6424 5.9543 100.804 9.64798C101.965 13.3416 109.921 16.6434 109.921 16.6434L108.205 21.1621C108.205 21.1621 104.622 20.7043 102.49 24.9648C100.358 29.225 105.161 70.9767 105.161 70.9767C105.161 70.9767 91.0452 96.6585 91.0452 107.319C91.0452 117.979 96.0965 126.913 96.0965 126.913H89.008C89.008 126.913 78.6095 114.552 76.4769 108.375C74.3443 102.197 75.197 96.0194 75.197 96.0194C75.197 96.0194 63.8941 95.3805 53.8713 96.0194C43.8485 96.6585 37.1642 105.265 35.9579 110.079C34.7515 114.893 34.2518 126.913 34.2518 126.913H28.647C25.2357 116.397 22.5263 112.628 23.9961 107.319C28.0674 92.6111 27.2677 84.2694 26.325 80.5541C25.3824 76.8386 19 73.5959 19 73.5959C22.1264 67.2334 25.3177 64.1761 39.0451 63.8572C52.7726 63.5384 71.2517 61.9954 77.3779 56.9343Z" fill="#EC4815"/>
</svg>
